# xmcd CD database file
#
# Track frame offsets:
#	150
#	64896
#	129840
#
# Disc length: 2176 seconds
#
# Revision: 0
# Processed by: cddbd v1.5.2PL0 Copyright (c) Steve Scherf et al.
# Submitted via: CDex 1.75
#
DISCID=21087e03
DTITLE=Dexter Gordon - Fried Bananas
DYEAR=2017
DGENRE=Jazz
TTITLE0=Fried Bananas
TTITLE1=The Panther
TTITLE2=Body And Soul
EXTD=YEAR: 2017
EXTT0=
EXTT1=
EXTT2=
PLAYORDER=
